<svg width="1074" height="979" viewBox="0 0 1074 979" fill="none" xmlns="http://www.w3.org/2000/svg">
<path d="M1041.93 978.614C1059.21 978.614 1073.32 964.756 1073.58 947.472C1074.9 861.324 1081.84 734.256 919.607 699.113C788.317 670.673 866.157 437.353 512.578 452.43C258.765 463.251 326.194 677.186 128.848 695.002C-2.46951 706.858 -3.60589 872.941 1.43943 949.041C2.54348 965.686 16.3516 978.617 33.0342 978.617H1041.93V978.614Z" fill="#B5DFEA"/>
<path opacity="0.55" d="M919.607 699.113C788.317 670.673 866.157 437.353 512.578 452.43C452.21 455.003 410.038 469.08 378.132 489.264C388.882 487.856 400.29 486.864 412.45 486.347C766.029 471.27 688.189 704.591 819.479 733.03C979.986 767.798 974.906 892.54 973.499 978.617H1041.93C1059.21 978.617 1073.32 964.759 1073.58 947.474C1074.9 861.326 1081.84 734.256 919.607 699.113Z" fill="#90CEDD"/>
<path d="M362.976 0H357.394V407.303H362.976V0Z" fill="#79C9E8"/>
<path d="M763.254 0H757.672V469.871H763.254V0Z" fill="#79C9E8"/>
<path d="M762.72 442.481L347.589 394.027C329.847 391.955 313.786 404.659 311.717 422.401L280.734 687.856C278.663 705.598 291.367 721.659 309.109 723.728L724.24 772.181C741.981 774.253 758.042 761.549 760.111 743.807L791.094 478.352C793.163 460.613 780.462 444.552 762.72 442.481Z" fill="#D7F0F9"/>
<path d="M788.026 504.628L791.092 478.352C793.163 460.61 780.459 444.549 762.717 442.481L347.589 394.027C329.847 391.955 313.786 404.659 311.717 422.401L308.651 448.677L788.026 504.628Z" fill="#0582C1"/>
<path d="M642.368 712.964L440.941 684.642C437.125 684.105 433.679 682.075 431.36 678.997C429.041 675.919 428.04 672.047 428.577 668.231L446.11 543.538C446.646 539.722 448.676 536.276 451.754 533.957C454.832 531.638 458.704 530.637 462.52 531.173L476.908 533.197L475.559 542.788L461.171 540.765C459.9 540.586 458.609 540.92 457.583 541.693C456.557 542.466 455.88 543.615 455.701 544.887L438.168 669.58C437.989 670.852 438.323 672.142 439.096 673.168C439.869 674.194 441.018 674.871 442.29 675.05L643.717 703.372C644.989 703.551 646.279 703.217 647.305 702.444C648.331 701.672 649.008 700.523 649.187 699.251L666.72 574.558C666.899 573.286 666.565 571.995 665.792 570.969C665.019 569.943 663.87 569.267 662.598 569.088L648.211 567.065L649.559 557.473L663.947 559.496C667.763 560.033 671.209 562.063 673.528 565.141C675.847 568.218 676.848 572.091 676.312 575.907L658.779 700.599C658.242 704.415 656.212 707.862 653.134 710.181C650.056 712.499 646.184 713.501 642.368 712.964Z" fill="#79C9E8"/>
<path d="M499.166 687.938L508.758 689.287L506.06 708.47L496.469 707.121L499.166 687.938Z" fill="#79C9E8"/>
<path d="M484.179 724.956L474.588 723.607L475.936 714.016C476.473 710.2 478.503 706.753 481.581 704.435C484.659 702.116 488.531 701.115 492.347 701.651L540.306 708.395L538.957 717.986L490.998 711.243C489.726 711.064 488.436 711.398 487.41 712.171C486.384 712.944 485.707 714.092 485.528 715.364L484.179 724.956Z" fill="#79C9E8"/>
<path d="M575.9 698.727L585.492 700.076L582.794 719.26L573.203 717.911L575.9 698.727Z" fill="#79C9E8"/>
<path d="M599.281 741.14L589.689 739.792L591.037 730.2C591.216 728.928 590.883 727.637 590.11 726.611C589.337 725.585 588.188 724.909 586.916 724.73L562.937 721.358L564.285 711.766L588.265 715.138C592.08 715.675 595.527 717.705 597.846 720.783C600.164 723.86 601.166 727.733 600.629 731.549L599.281 741.14Z" fill="#79C9E8"/>
<path d="M465.67 717.463L609.547 737.693L608.198 747.285L464.322 727.055L465.67 717.463Z" fill="#79C9E8"/>
<path d="M621.086 690.409L467.618 668.83C463.802 668.293 460.356 666.263 458.037 663.185C455.718 660.108 454.717 656.235 455.253 652.419L475.484 508.543C476.02 504.727 478.051 501.281 481.128 498.962C484.206 496.643 488.078 495.642 491.894 496.178L645.362 517.757C649.178 518.294 652.625 520.324 654.943 523.402C657.262 526.479 658.264 530.352 657.727 534.168L637.497 678.044C636.96 681.86 634.93 685.306 631.852 687.625C628.774 689.944 624.902 690.945 621.086 690.409ZM490.546 505.77C489.274 505.591 487.983 505.925 486.957 506.698C485.931 507.471 485.254 508.62 485.075 509.891L464.845 653.768C464.666 655.04 465 656.331 465.773 657.356C466.546 658.382 467.695 659.059 468.967 659.238L622.435 680.817C623.707 680.996 624.997 680.662 626.023 679.889C627.049 679.116 627.726 677.967 627.905 676.696L648.135 532.819C648.314 531.547 647.98 530.256 647.207 529.231C646.434 528.205 645.286 527.528 644.014 527.349L490.546 505.77Z" fill="#79C9E8"/>
<path d="M478.256 523.605L650.908 547.881L649.559 557.473L476.908 533.197L478.256 523.605Z" fill="#79C9E8"/>
<path d="M494.667 511.24L504.259 512.589L502.91 522.181L493.318 520.832L494.667 511.24Z" fill="#79C9E8"/>
<path d="M513.851 513.938L523.442 515.286L522.094 524.878L512.502 523.529L513.851 513.938Z" fill="#79C9E8"/>
<path d="M533.034 516.635L542.626 517.984L541.277 527.575L531.685 526.227L533.034 516.635Z" fill="#79C9E8"/>
<path d="M438.093 635.334L462.072 638.706L460.724 648.298L436.744 644.926L438.093 635.334Z" fill="#79C9E8"/>
<path d="M634.724 662.982L658.703 666.354L657.354 675.946L633.375 672.574L634.724 662.982Z" fill="#79C9E8"/>
<path d="M489.947 544.811L499.538 546.16L498.19 555.752L488.598 554.403L489.947 544.811Z" fill="#79C9E8"/>
<path d="M624.231 563.693L633.823 565.042L632.474 574.633L622.883 573.285L624.231 563.693Z" fill="#79C9E8"/>
<path d="M610.744 659.611L620.336 660.959L618.987 670.551L609.396 669.202L610.744 659.611Z" fill="#79C9E8"/>
<path d="M476.46 640.729L486.052 642.078L484.703 651.669L475.111 650.321L476.46 640.729Z" fill="#79C9E8"/>
<path d="M495.643 643.426L601.153 658.262L599.804 667.854L494.295 653.018L495.643 643.426Z" fill="#79C9E8"/>
<path d="M509.13 547.509L614.64 562.344L613.291 571.936L507.782 557.1L509.13 547.509Z" fill="#79C9E8"/>
<path d="M357.588 430.709C357.031 435.476 352.714 438.89 347.947 438.335C343.18 437.778 339.766 433.462 340.323 428.695C340.88 423.928 345.195 420.514 349.964 421.071C354.733 421.628 358.145 425.942 357.588 430.709Z" fill="white"/>
<path d="M399.228 435.57C398.671 440.337 394.355 443.751 389.588 443.197C384.821 442.64 381.407 438.323 381.961 433.556C382.518 428.789 386.835 425.375 391.602 425.932C396.371 426.487 399.785 430.804 399.228 435.57Z" fill="#79C9E8"/>
<path d="M442.393 440.608C441.836 445.375 437.52 448.789 432.753 448.232C427.986 447.675 424.572 443.358 425.129 438.592C425.686 433.825 430.002 430.411 434.769 430.968C439.536 431.525 442.95 435.841 442.393 440.608Z" fill="#FFBF4D"/>
<path d="M275.393 742.976C275.393 742.976 269.786 767.837 270.721 793.258C271.559 816.015 268.851 965.604 268.851 965.604H287.123C287.123 965.604 313.132 848.445 314.105 839.193C315.077 829.94 328.159 737.416 328.159 737.416L275.393 742.976Z" fill="#00668E"/>
<path d="M287.543 736.153C287.543 736.153 291.748 768.116 298.897 790.826C306.046 813.536 341.186 965.602 341.186 965.602H359.458C359.458 965.602 356.093 848.443 354.83 839.19C353.569 829.938 344.317 737.414 344.317 737.414L287.543 736.153Z" fill="#0582C1"/>
<path d="M342.681 965.574V978.326H377.463C379.44 978.326 380.211 975.764 378.567 974.668C373.48 971.281 365.334 966.614 357.759 965.572H342.681V965.574Z" fill="#0582C1"/>
<path d="M269.783 965.574V978.326H304.566C306.543 978.326 307.314 975.764 305.67 974.668C300.582 971.281 292.436 966.614 284.862 965.572H269.783V965.574Z" fill="#0582C1"/>
<path d="M332.538 587.472C332.538 587.472 344.501 569.307 330.765 567.534C320.219 566.174 315.88 569.315 315.88 569.315C315.88 569.315 303.738 567.977 297.091 573.736C292.538 577.682 275.823 608.295 302.85 619.37C329.877 630.448 324.118 602.091 324.118 602.091L332.538 587.472Z" fill="#00668E"/>
<path d="M330.767 567.534C320.221 566.174 315.882 569.315 315.882 569.315C315.882 569.315 303.74 567.977 297.093 573.736C292.54 577.682 275.826 608.295 302.852 619.37C315.556 624.577 321.015 621.068 323.233 615.891C297.588 623.105 294.811 592.199 299.038 583.406C303.335 574.469 313.644 578.595 313.644 578.595C317.677 568.444 330.819 569.543 336.235 570.334C335.25 568.924 333.54 567.892 330.767 567.534Z" fill="#05556D"/>
<path d="M315.701 596.332C315.701 596.332 312.158 592.788 309.499 596.332C306.841 599.877 308.614 607.852 313.043 608.295C313.043 608.295 311.712 619.815 302.853 619.37V628.675H323.676V621.585C323.676 621.585 336.524 616.269 336.081 605.636C335.639 595.004 332.538 587.472 332.538 587.472C332.538 587.472 325.448 595.446 315.701 596.332Z" fill="#F98D3D"/>
<path d="M318.889 624.567C320.95 625.425 320.59 626.725 320.682 628.677H323.678V621.588C323.678 621.588 318.633 623.192 311.243 618.982C311.243 618.982 315.542 623.172 318.889 624.567Z" fill="#ED701B"/>
<path d="M323.151 579.375C323.151 579.375 312.356 575.076 311.096 578.301C310.27 580.412 312.371 582.233 315.251 584.068L312.71 584.485C312.145 584.58 311.941 585.301 312.386 585.659C313.095 586.231 315.052 586.616 319.132 586.758L323.151 579.375Z" fill="#F98D3D"/>
<path d="M400.225 606.41C379.644 591.157 323.429 578.963 323.429 578.963L318.797 587.405C318.797 587.405 369.829 607.181 366.46 610.127C364.483 611.868 339.542 623.294 331.103 627.138C329.29 627.961 327.313 628.364 325.299 628.329L299.463 628.182C299.463 628.182 280.824 625.967 266.155 642.814C253.046 657.902 230.761 692.839 230.761 692.839L268.299 748.046L272.456 754.144L272.494 754.069L272.456 754.581C272.456 754.581 273.792 754.728 276.154 754.947C288.222 756.063 326.893 759.122 347.365 754.783L347.932 754.653L346.962 664.089C379.646 638.216 395.247 618.239 400.832 611.957C402.294 610.291 402.021 607.748 400.225 606.41ZM274.267 729.917L270.604 721.915L258.939 696.427L278.295 674.746L274.816 722.318L274.267 729.917Z" fill="#FFBF4D"/>
<path d="M270.604 721.915L274.267 729.917L272.489 754.069L272.454 754.141L268.296 748.044L270.604 721.915Z" fill="#EFAA3A"/>
<path opacity="0.29" d="M338.227 660.834C334.751 663.358 335.631 685.757 334.773 699.759C333.336 723.21 331.936 743.503 332.968 756.588C338.267 756.24 343.195 755.665 347.363 754.783L347.93 754.653L346.96 664.089C379.644 638.216 395.245 618.239 400.83 611.957C402.294 610.291 402.021 607.745 400.226 606.41C400.226 606.41 374.39 634.578 338.227 660.834Z" fill="#F98D2B"/>
<path d="M354.833 839.19C353.923 832.514 348.852 782.486 346.1 755.143L332.968 756.588C332.968 756.588 352.125 914.072 353.383 965.602H359.46C359.46 965.602 356.096 848.443 354.833 839.19Z" fill="#00668E"/>
<path d="M270.639 598.915L266.68 591.816C268.664 588.074 269.798 583.812 269.798 579.281C269.798 564.476 257.795 552.473 242.99 552.473C228.185 552.473 216.182 564.476 216.182 579.281C216.182 594.086 228.185 606.089 242.99 606.089C250.445 606.089 257.184 603.043 262.043 598.132L270.639 598.915Z" fill="#0582C1"/>
<path d="M224.571 581.43C224.571 580.98 224.632 580.6 224.754 580.287C224.876 579.975 225.033 579.713 225.223 579.503C225.418 579.293 225.633 579.13 225.868 579.013C226.107 578.896 226.341 578.808 226.571 578.749C226.8 578.69 227.013 578.654 227.208 578.639C227.408 578.625 227.564 578.617 227.677 578.617C227.789 578.617 227.943 578.625 228.138 578.639C228.333 578.654 228.541 578.69 228.761 578.749C228.985 578.808 229.21 578.896 229.435 579.013C229.664 579.13 229.869 579.293 230.05 579.503C230.235 579.713 230.387 579.975 230.504 580.287C230.621 580.6 230.68 580.98 230.68 581.43V583.246C230.68 583.695 230.621 584.076 230.504 584.389C230.387 584.701 230.235 584.962 230.05 585.172C229.869 585.382 229.664 585.546 229.435 585.663C229.21 585.78 228.985 585.868 228.761 585.927C228.541 585.985 228.333 586.022 228.138 586.037C227.943 586.051 227.789 586.059 227.677 586.059C227.564 586.059 227.408 586.051 227.208 586.037C227.013 586.022 226.8 585.985 226.571 585.927C226.341 585.868 226.107 585.78 225.868 585.663C225.633 585.546 225.418 585.382 225.223 585.172C225.033 584.962 224.876 584.701 224.754 584.389C224.632 584.076 224.571 583.695 224.571 583.246V581.43ZM226.827 583.759C226.832 583.9 226.866 584.025 226.93 584.132C226.983 584.23 227.066 584.318 227.179 584.396C227.296 584.469 227.462 584.506 227.677 584.506C227.882 584.506 228.038 584.469 228.146 584.396C228.258 584.318 228.341 584.23 228.395 584.132C228.453 584.025 228.487 583.9 228.497 583.759V581.107C228.487 580.961 228.453 580.827 228.395 580.705C228.341 580.607 228.258 580.517 228.146 580.434C228.038 580.346 227.882 580.302 227.677 580.302C227.462 580.302 227.296 580.346 227.179 580.434C227.066 580.517 226.983 580.607 226.93 580.705C226.866 580.827 226.832 580.961 226.827 581.107V583.759ZM231.822 581.43C231.822 580.98 231.883 580.6 232.005 580.287C232.127 579.975 232.284 579.713 232.474 579.503C232.669 579.293 232.884 579.13 233.119 579.013C233.358 578.896 233.592 578.808 233.822 578.749C234.051 578.69 234.264 578.654 234.459 578.639C234.659 578.625 234.815 578.617 234.928 578.617C235.04 578.617 235.194 578.625 235.389 578.639C235.584 578.654 235.792 578.69 236.012 578.749C236.236 578.808 236.461 578.896 236.686 579.013C236.915 579.13 237.12 579.293 237.301 579.503C237.486 579.713 237.638 579.975 237.755 580.287C237.872 580.6 237.931 580.98 237.931 581.43V583.246C237.931 583.695 237.872 584.076 237.755 584.389C237.638 584.701 237.486 584.962 237.301 585.172C237.12 585.382 236.915 585.546 236.686 585.663C236.461 585.78 236.236 585.868 236.012 585.927C235.792 585.985 235.584 586.022 235.389 586.037C235.194 586.051 235.04 586.059 234.928 586.059C234.815 586.059 234.659 586.051 234.459 586.037C234.264 586.022 234.051 585.985 233.822 585.927C233.592 585.868 233.358 585.78 233.119 585.663C232.884 585.546 232.669 585.382 232.474 585.172C232.284 584.962 232.127 584.701 232.005 584.389C231.883 584.076 231.822 583.695 231.822 583.246V581.43ZM234.078 583.759C234.083 583.9 234.117 584.025 234.181 584.132C234.234 584.23 234.317 584.318 234.43 584.396C234.547 584.469 234.713 584.506 234.928 584.506C235.133 584.506 235.289 584.469 235.396 584.396C235.509 584.318 235.592 584.23 235.646 584.132C235.704 584.025 235.738 583.9 235.748 583.759V581.107C235.738 580.961 235.704 580.827 235.646 580.705C235.592 580.607 235.509 580.517 235.396 580.434C235.289 580.346 235.133 580.302 234.928 580.302C234.713 580.302 234.547 580.346 234.43 580.434C234.317 580.517 234.234 580.607 234.181 580.705C234.117 580.827 234.083 580.961 234.078 581.107V583.759ZM239.469 580.331C239.469 580.126 239.476 579.926 239.491 579.73C239.505 579.53 239.549 579.352 239.623 579.196C239.696 579.04 239.806 578.915 239.952 578.822C240.099 578.725 240.304 578.676 240.567 578.676C240.836 578.676 241.046 578.722 241.197 578.815C241.349 578.903 241.461 579.013 241.534 579.145C241.607 579.271 241.651 579.406 241.666 579.547C241.686 579.689 241.695 579.809 241.695 579.906C241.739 579.765 241.8 579.621 241.878 579.474C241.961 579.328 242.066 579.196 242.193 579.079C242.32 578.961 242.472 578.866 242.647 578.793C242.828 578.715 243.038 578.676 243.277 578.676C243.546 578.676 243.814 578.72 244.083 578.808C244.352 578.896 244.593 579.042 244.808 579.247C245.023 579.452 245.196 579.721 245.328 580.053C245.465 580.38 245.533 580.785 245.533 581.269V583.393C245.533 583.881 245.465 584.291 245.328 584.623C245.196 584.95 245.023 585.216 244.808 585.421C244.593 585.622 244.352 585.766 244.083 585.854C243.814 585.941 243.546 585.985 243.277 585.985C243.038 585.985 242.828 585.949 242.647 585.875C242.472 585.802 242.32 585.707 242.193 585.59C242.066 585.473 241.961 585.341 241.878 585.194C241.8 585.048 241.739 584.901 241.695 584.755V587.26C241.695 587.475 241.683 587.682 241.659 587.882C241.639 588.083 241.59 588.258 241.512 588.41C241.439 588.566 241.327 588.69 241.175 588.783C241.024 588.881 240.821 588.93 240.567 588.93C240.323 588.93 240.128 588.881 239.981 588.783C239.835 588.69 239.723 588.566 239.645 588.41C239.571 588.258 239.522 588.083 239.498 587.882C239.479 587.682 239.469 587.475 239.469 587.26V580.331ZM243.277 581.459C243.277 581.327 243.272 581.198 243.263 581.071C243.253 580.944 243.226 580.829 243.182 580.727C243.138 580.624 243.072 580.543 242.984 580.485C242.901 580.421 242.784 580.39 242.633 580.39C242.442 580.39 242.286 580.434 242.164 580.521C242.047 580.604 241.954 580.736 241.886 580.917C241.817 581.093 241.769 581.317 241.739 581.591C241.715 581.864 241.7 582.187 241.695 582.558C241.695 582.714 241.708 582.892 241.732 583.092C241.761 583.288 241.81 583.473 241.878 583.649C241.947 583.825 242.042 583.974 242.164 584.096C242.286 584.213 242.442 584.271 242.633 584.271C242.784 584.271 242.901 584.242 242.984 584.184C243.072 584.12 243.138 584.04 243.182 583.942C243.226 583.844 243.253 583.734 243.263 583.612C243.272 583.485 243.277 583.358 243.277 583.231V581.459ZM249.107 580.595C249.107 580.692 249.139 580.783 249.203 580.866C249.266 580.949 249.352 581.029 249.459 581.107C249.571 581.181 249.698 581.254 249.84 581.327C249.986 581.4 250.138 581.474 250.294 581.547C250.533 581.664 250.777 581.791 251.026 581.928C251.275 582.06 251.502 582.216 251.708 582.396C251.913 582.577 252.079 582.787 252.206 583.026C252.337 583.261 252.403 583.539 252.403 583.861C252.403 584.154 252.359 584.413 252.271 584.638C252.188 584.862 252.076 585.058 251.935 585.224C251.793 585.385 251.627 585.519 251.437 585.626C251.251 585.734 251.053 585.819 250.843 585.883C250.638 585.946 250.428 585.99 250.213 586.015C249.999 586.044 249.796 586.059 249.605 586.059C249.229 586.059 248.902 586.027 248.624 585.963C248.346 585.9 248.106 585.817 247.906 585.714C247.706 585.607 247.54 585.487 247.408 585.355C247.281 585.219 247.181 585.077 247.108 584.931C247.035 584.784 246.983 584.64 246.954 584.499C246.925 584.352 246.91 584.218 246.91 584.096C246.91 583.803 246.991 583.588 247.152 583.451C247.318 583.314 247.569 583.246 247.906 583.246C248.15 583.246 248.351 583.312 248.507 583.444C248.663 583.576 248.746 583.788 248.756 584.081C248.761 584.179 248.788 584.257 248.836 584.315C248.89 584.374 248.956 584.423 249.034 584.462C249.117 584.496 249.208 584.521 249.305 584.535C249.403 584.545 249.498 584.55 249.591 584.55C249.781 584.55 249.935 584.501 250.052 584.403C250.174 584.301 250.235 584.169 250.235 584.008C250.235 583.871 250.194 583.744 250.111 583.627C250.033 583.505 249.928 583.393 249.796 583.29C249.664 583.188 249.513 583.09 249.342 582.997C249.176 582.899 249.005 582.802 248.829 582.704C248.609 582.587 248.387 582.462 248.163 582.331C247.943 582.199 247.743 582.052 247.562 581.891C247.381 581.73 247.235 581.549 247.123 581.349C247.01 581.144 246.954 580.912 246.954 580.653C246.954 580.272 247.015 579.955 247.137 579.701C247.264 579.442 247.447 579.235 247.687 579.079C247.926 578.917 248.216 578.803 248.558 578.734C248.905 578.666 249.298 578.627 249.737 578.617H249.854C250.25 578.617 250.584 578.651 250.858 578.72C251.136 578.788 251.366 578.878 251.546 578.991C251.732 579.098 251.876 579.22 251.979 579.357C252.086 579.494 252.164 579.633 252.213 579.774C252.267 579.911 252.298 580.043 252.308 580.17C252.323 580.297 252.33 580.404 252.33 580.492C252.33 580.639 252.298 580.761 252.235 580.858C252.176 580.951 252.096 581.027 251.993 581.085C251.896 581.139 251.783 581.178 251.656 581.203C251.529 581.222 251.397 581.234 251.261 581.239C251.144 581.239 251.036 581.22 250.938 581.181C250.846 581.142 250.765 581.093 250.697 581.034C250.628 580.976 250.575 580.91 250.536 580.836C250.501 580.763 250.484 580.692 250.484 580.624C250.475 580.438 250.399 580.297 250.257 580.199C250.121 580.102 249.952 580.053 249.752 580.053C249.669 580.053 249.588 580.062 249.51 580.082C249.437 580.097 249.369 580.126 249.305 580.17C249.247 580.209 249.198 580.263 249.159 580.331C249.125 580.399 249.107 580.487 249.107 580.595ZM256.344 584.784C256.344 585.199 256.239 585.507 256.029 585.707C255.819 585.902 255.523 586 255.143 586C254.752 586 254.452 585.902 254.242 585.707C254.032 585.507 253.927 585.199 253.927 584.784C253.927 584.364 254.032 584.059 254.242 583.869C254.452 583.678 254.752 583.583 255.143 583.583C255.548 583.583 255.848 583.678 256.043 583.869C256.244 584.059 256.344 584.364 256.344 584.784ZM260.724 584.784C260.724 585.199 260.619 585.507 260.409 585.707C260.199 585.902 259.903 586 259.522 586C259.132 586 258.832 585.902 258.622 585.707C258.412 585.507 258.307 585.199 258.307 584.784C258.307 584.364 258.412 584.059 258.622 583.869C258.832 583.678 259.132 583.583 259.522 583.583C259.928 583.583 260.228 583.678 260.423 583.869C260.624 584.059 260.724 584.364 260.724 584.784Z" fill="white"/>
<path d="M167.853 921.273C167.853 921.273 162.221 916.014 166 896.061C169.78 876.109 179.368 856.947 174.663 835.301C169.959 813.655 133.075 759.075 132.951 755.447C132.826 751.816 121.572 818.942 140.647 845.384C159.721 871.827 162.017 881 161.169 894.905C160.321 908.81 161.365 920.01 163.456 923.242L167.853 921.273Z" fill="#79C9E8"/>
<path d="M164.361 881.142C162.143 890.041 160.806 912.361 164.349 917.702C164.68 918.202 165.155 917.916 165.747 916.996C164.667 913.306 163.959 906.841 166 896.061C169.78 876.109 179.368 856.947 174.663 835.301C169.959 813.655 133.075 759.077 132.951 755.447C132.951 755.447 138.508 800.919 157.227 832.22C170.63 854.625 166.58 872.24 164.361 881.142Z" fill="#49B4D6"/>
<path d="M174.579 919.886C174.579 919.886 163.742 892.831 182.108 869.408C200.472 845.984 229.844 815.906 230.428 803.99C230.428 803.99 237.975 860.56 214.074 876.576C190.17 892.59 173.408 895.146 177.553 919.784L174.579 919.886Z" fill="#79C9E8"/>
<path d="M200.377 865.203C173.724 884.603 171.545 906.95 175.68 917.314C176.001 918.12 176.61 918.612 177.414 918.876C173.84 895.094 190.466 892.389 214.069 876.576C237.972 860.563 230.423 803.99 230.423 803.99C230.423 803.99 227.031 845.805 200.377 865.203Z" fill="#49B4D6"/>
<path d="M156.757 920.495C156.757 920.495 160.234 906.169 158.384 890.703C156.534 875.236 140.378 866.538 125.282 850.201C117.516 841.796 115.219 797.351 120.033 793.221C120.033 793.221 93.3815 825.519 97.4918 849.167C101.602 872.814 145.08 888.181 149.104 899.61C153.127 911.036 152.794 920.629 152.794 920.629L156.757 920.495Z" fill="#79C9E8"/>
<path d="M111.026 805.932C102.216 829.786 111.248 858.675 140.508 876.619C162.049 889.83 155.188 917.299 155.188 917.299L158.707 906.463C159.018 901.778 159.053 896.32 158.381 890.703C156.531 875.236 140.376 866.538 125.28 850.201C117.79 842.095 115.388 800.474 119.548 793.822C118.33 795.359 114.881 799.827 111.026 805.932Z" fill="#49B4D6"/>
<path d="M119.551 793.822C119.851 793.442 120.033 793.221 120.033 793.221C119.864 793.367 119.705 793.579 119.551 793.822Z" fill="#49B4D6"/>
<path d="M180.156 918.704C180.156 918.704 186.403 895.527 201.852 892.406C217.301 889.285 235.041 866.458 236 861.98C236 861.98 233.394 905.036 180.156 918.704Z" fill="#79C9E8"/>
<path d="M200.969 900.07C191.503 904.804 187.566 911.17 186.169 916.949C233.569 901.706 236 861.983 236 861.983C235.811 862.868 234.946 864.487 233.593 866.511C228.943 874.654 217.689 891.71 200.969 900.07Z" fill="#49B4D6"/>
<path d="M213.586 910.17H132.784L142.38 970.52C143.109 975.098 147.055 978.467 151.69 978.467H194.681C199.316 978.467 203.262 975.098 203.99 970.52L213.586 910.17Z" fill="#FFBF4D"/>
<path d="M212 920.154L213.586 910.17H132.784L134.373 920.154H212Z" fill="#FF9F50"/>
<path d="M194.012 910.17L184.416 970.52C183.687 975.098 179.741 978.465 175.106 978.465H194.681C199.316 978.465 203.262 975.095 203.99 970.52L213.586 910.17H194.012Z" fill="#FF9F50"/>
<path d="M770.903 802.543H405.713V876.793H770.903V802.543Z" fill="#FFBF4D"/>
<path opacity="0.29" d="M770.903 802.543H405.713V820.566H770.903V802.543Z" fill="#F98D2B"/>
<path d="M437.467 802.543H470.798L461.863 820.573H428.516L437.467 802.543Z" fill="#F77E2D"/>
<path d="M512.56 802.543H545.891L536.956 820.573H503.626L512.56 802.543Z" fill="#F77E2D"/>
<path d="M587.653 802.543H620.986L612.052 820.573H578.721L587.653 802.543Z" fill="#F77E2D"/>
<path d="M662.748 802.543H696.061L687.127 820.573H653.814L662.748 802.543Z" fill="#F77E2D"/>
<path d="M770.903 802.543V803.045L762.202 820.573H728.907L737.841 802.543H770.903Z" fill="#F77E2D"/>
<path d="M476.917 876.8H451.173V978.326H476.917V876.8Z" fill="#79C9E8"/>
<path d="M476.917 876.8H471.069V978.326H476.917V876.8Z" fill="#49B4D6"/>
<path d="M727.445 876.8H701.701V978.326H727.445V876.8Z" fill="#79C9E8"/>
<path d="M727.445 876.8H719.833V978.326H727.445V876.8Z" fill="#49B4D6"/>
<path d="M476.917 876.721H451.173V889.507H476.917V876.721Z" fill="#49B4D6"/>
<path d="M727.445 876.721H701.701V889.507H727.445V876.721Z" fill="#49B4D6"/>
<path d="M476.917 790.943H451.173V802.471H476.917V790.943Z" fill="#79C9E8"/>
<path d="M476.917 790.943H471.069V802.471H476.917V790.943Z" fill="#49B4D6"/>
<path d="M727.445 790.943H701.701V802.471H727.445V790.943Z" fill="#79C9E8"/>
<path d="M727.445 790.943H719.833V802.471H727.445V790.943Z" fill="#49B4D6"/>
<path d="M476.917 801.029H451.173V802.481H476.917V801.029Z" fill="#49B4D6"/>
<path d="M727.445 801.029H701.701V802.481H727.445V801.029Z" fill="#49B4D6"/>
<path d="M470.798 802.543L433.969 876.795H405.713V866.55L437.467 802.543H470.798Z" fill="#0582C1"/>
<path d="M512.56 802.543L475.731 876.795H509.062L545.891 802.543H512.56Z" fill="#0582C1"/>
<path d="M620.986 802.543L584.157 876.795H550.824L587.653 802.543H620.986Z" fill="#0582C1"/>
<path d="M696.061 802.543L659.25 876.795H625.919L662.748 802.543H696.061Z" fill="#0582C1"/>
<path d="M737.841 802.543L701.012 876.795H734.325L770.903 803.045L737.841 802.543Z" fill="#0582C1"/>
<path d="M470.798 802.543L461.863 820.573H428.516L437.467 802.543H470.798Z" fill="#00668E"/>
<path d="M545.891 802.543L536.956 820.573H503.626L512.56 802.543H545.891Z" fill="#00668E"/>
<path d="M620.986 802.543L612.052 820.573H578.721L587.653 802.543H620.986Z" fill="#00668E"/>
<path d="M696.061 802.543L687.127 820.573H653.814L662.748 802.543H696.061Z" fill="#00668E"/>
<path d="M770.903 803.045L762.202 820.573H728.907L737.841 802.543L770.903 803.045Z" fill="#00668E"/>
<path opacity="0.55" d="M764.612 834.667H415.891V871.807H764.612V834.667Z" fill="url(#paint0_linear_206_275)"/>
<path d="M467.018 797.5C479.53 795.464 488.023 783.67 485.987 771.158C483.951 758.646 472.158 750.153 459.645 752.189C447.133 754.225 438.64 766.019 440.676 778.531C442.712 791.043 454.506 799.536 467.018 797.5Z" fill="#FFBF4D"/>
<path d="M473.777 774.83C473.777 769.086 469.119 764.428 463.375 764.428C457.631 764.428 452.974 769.086 452.974 774.83C452.974 780.574 457.631 785.231 463.375 785.231C469.119 785.231 473.777 780.574 473.777 774.83Z" fill="#0582C1"/>
<path d="M718.065 797.511C730.577 795.475 739.07 783.681 737.034 771.169C734.998 758.657 723.204 750.164 710.692 752.2C698.18 754.236 689.687 766.029 691.723 778.542C693.759 791.054 705.552 799.547 718.065 797.511Z" fill="#FFBF4D"/>
<path d="M724.824 774.83C724.824 769.086 720.166 764.428 714.422 764.428C708.678 764.428 704.021 769.086 704.021 774.83C704.021 780.574 708.678 785.231 714.422 785.231C720.166 785.231 724.824 780.574 724.824 774.83Z" fill="#0582C1"/>
<path d="M909.257 970.455H792.952L810.743 927.33V927.305L817.897 909.904L819.869 905.135L823.082 897.372L823.738 895.79L830.895 878.389L832.21 875.226L844.889 844.44C847.177 838.889 855.037 838.889 857.325 844.44L870.004 875.226L871.319 878.389L878.473 895.79L879.13 897.372L882.343 905.135L884.314 909.904L891.471 927.305V927.33L909.257 970.455Z" fill="#FFBF4D"/>
<path opacity="0.29" d="M800.576 951.965L792.957 970.453H909.27L901.648 951.965H800.576Z" fill="#F98D2B"/>
<path d="M916.869 959.4H783.659V978.231H916.869V959.4Z" fill="#79C9E8"/>
<path d="M916.867 959.4H888.087V978.231H916.867V959.4Z" fill="#49B4D6"/>
<path opacity="0.29" d="M904.682 959.393H888.231L875.014 927.34V927.315L867.861 909.914L865.889 905.145L862.676 897.382L862.02 895.8L854.866 878.399L853.55 875.236L842.89 849.318L844.887 844.452C847.175 838.902 855.035 838.902 857.322 844.452L870.002 875.239L871.317 878.402L878.471 895.803L879.127 897.384L882.34 905.147L884.312 909.917L891.468 927.318V927.343L904.682 959.393Z" fill="#F98D2B"/>
<path d="M878.471 895.79H823.738L830.892 878.389H871.317L878.471 895.79Z" fill="#0582C1"/>
<path d="M891.468 927.306V927.33H810.741V927.306L817.897 909.904H884.312L891.468 927.306Z" fill="#0582C1"/>
<path d="M878.471 895.79H862.02L854.866 878.389H871.317L878.471 895.79Z" fill="#00668E"/>
<path d="M891.468 927.306V927.33H875.015V927.306L867.861 909.904H884.312L891.468 927.306Z" fill="#00668E"/>
<path d="M167.885 547.569C176.576 547.569 184.13 541.258 185.304 532.65C185.515 531.105 185.622 529.529 185.622 527.928C185.622 508.758 170.081 493.22 150.911 493.22C150.126 493.22 149.347 493.254 148.574 493.307C146.99 474.404 131.155 459.554 111.842 459.554C91.4767 459.554 74.9707 476.062 74.9707 496.427C74.9707 497.33 75.0154 498.223 75.0776 499.11C69.2987 495.883 62.5625 494.157 55.4011 494.485C36.8809 495.333 21.6629 510.148 20.3525 528.644C20.3425 528.79 20.3326 528.937 20.3251 529.084C19.7283 539.142 27.8595 547.577 37.9352 547.577H167.885V547.569Z" fill="#D7F0F9"/>
<path d="M996.256 574.832C1023.7 574.832 1025.22 533.525 997.808 532.192C997.059 532.155 996.306 532.137 995.547 532.137C990.654 532.137 985.942 532.913 981.52 534.333C977.85 511.974 958.447 494.913 935.051 494.913C911.14 494.913 891.404 512.734 888.367 535.82C882.693 533.1 876.34 531.575 869.626 531.575C865.876 531.575 862.238 532.05 858.767 532.946C834.766 539.127 839.804 574.835 864.588 574.835H996.256V574.832Z" fill="#D7F0F9"/>
<path d="M666.64 371.307C694.079 371.307 695.599 330.012 668.191 328.679C667.443 328.642 666.69 328.624 665.931 328.624C661.04 328.624 656.328 329.4 651.909 330.82C648.241 308.468 628.843 291.412 605.454 291.412C581.551 291.412 561.82 309.229 558.786 332.307C553.114 329.586 546.761 328.062 540.049 328.062C536.302 328.062 532.664 328.537 529.195 329.43C505.202 335.609 510.238 371.307 535.014 371.307H666.64Z" fill="#D7F0F9"/>
<path d="M229.771 447.633C266.102 447.633 295.555 418.181 295.555 381.85C295.555 345.519 266.102 316.067 229.771 316.067C193.441 316.067 163.988 345.519 163.988 381.85C163.988 418.181 193.441 447.633 229.771 447.633Z" fill="#FFBF4D"/>
<path d="M230.311 316.079C248.202 327.836 260.023 348.074 260.023 371.08C260.023 407.412 230.572 436.863 194.24 436.863C194.059 436.863 193.88 436.851 193.701 436.851C204.06 443.659 216.448 447.63 229.771 447.63C266.103 447.63 295.555 418.179 295.555 381.847C295.555 345.7 266.392 316.373 230.311 316.079Z" fill="#FF9F50"/>
<path d="M558.444 612.955C558.303 613.945 558.104 614.895 557.848 615.806C557.623 616.72 557.271 617.523 556.794 618.212C556.321 618.871 555.696 619.381 554.918 619.744C554.176 620.079 553.217 620.164 552.041 619.996C550.866 619.828 549.953 619.477 549.303 618.942C548.689 618.381 548.247 617.718 547.977 616.953C547.712 616.158 547.584 615.287 547.592 614.342C547.632 613.4 547.723 612.435 547.864 611.445L547.597 596.065L549.213 584.742C549.399 583.443 549.688 582.19 550.081 580.984C550.475 579.777 551.018 578.734 551.712 577.854C552.406 576.975 553.289 576.312 554.363 575.865C555.468 575.423 556.809 575.315 558.387 575.54C559.965 575.765 561.205 576.258 562.106 577.018C563.012 577.747 563.673 578.646 564.089 579.716C564.509 580.754 564.723 581.906 564.732 583.17C564.772 584.438 564.699 585.722 564.514 587.021L562.884 598.437L558.444 612.955ZM557.823 633.89C557.448 636.519 556.505 638.373 554.993 639.452C553.486 640.499 551.526 640.851 549.113 640.507C546.638 640.153 544.824 639.263 543.671 637.836C542.521 636.377 542.134 634.333 542.51 631.704C542.89 629.043 543.831 627.205 545.333 626.188C546.836 625.171 548.824 624.84 551.299 625.193C553.867 625.56 555.684 626.434 556.749 627.818C557.845 629.205 558.203 631.229 557.823 633.89Z" fill="#FFBF4D"/>
<defs>
<linearGradient id="paint0_linear_206_275" x1="590.25" y1="898.514" x2="590.25" y2="838.701" gradientUnits="userSpaceOnUse">
<stop stop-color="white"/>
<stop offset="1" stop-color="white" stop-opacity="0"/>
</linearGradient>
</defs>
</svg>
